#N canvas 939 170 608 487 12;
#X obj 164 227 +~;
#X obj 194 191 *~ 140;
#X floatatom 269 158 5 0 0 0 - - -;
#X obj 194 129 osc~ 1;
#X floatatom 185 94 5 0 0 0 - - -;
#X floatatom 134 173 5 0 0 0 - - -;
#X obj 163 257 osc~;
#X obj 162 286 *~ 0.8;
#X obj 161 315 dac~;
#X text 122 150 Carrier;
#X text 196 78 Modulator;
#X text 59 17 3.6.1.2. Frequency modulation;
#X text 305 419 www.pd-tutorial.com;
#X text 303 388 Johannes Kreidler;
#X msg 287 228 0;
#X msg 285 276 1;
#X obj -3 64 receive carr;
#X obj 175 46 receive modFreq;
#X obj 374 100 receive modeAmp;
#X obj 373 182 receive off;
#X obj 395 264 receive on;
#X obj 334 207 bng 15 250 50 0 empty empty empty 17 7 0 10 -262144
-1 -1;
#X obj 343 265 bng 15 250 50 0 empty empty empty 17 7 0 10 -262144
-1 -1;
#X connect 0 0 6 0;
#X connect 1 0 0 1;
#X connect 2 0 1 1;
#X connect 3 0 1 0;
#X connect 4 0 3 0;
#X connect 5 0 0 0;
#X connect 6 0 7 0;
#X connect 7 0 8 0;
#X connect 7 0 8 1;
#X connect 14 0 7 1;
#X connect 15 0 7 1;
#X connect 16 0 5 0;
#X connect 17 0 4 0;
#X connect 18 0 2 0;
#X connect 19 0 21 0;
#X connect 20 0 22 0;
#X connect 21 0 14 0;
#X connect 22 0 15 0;
