#N canvas 812 183 608 487 12;
#X obj 194 191 *~ 140;
#X floatatom 248 165 5 0 0 0 - - -, f 5;
#X obj 255 131 osc~ 1;
#X obj 163 257 osc~;
#X obj 162 286 *~ 0.8;
#X obj 161 315 dac~;
#X text 59 17 3.6.1.2. Frequency modulation;
#X text 305 419 www.pd-tutorial.com;
#X text 303 388 Johannes Kreidler;
#X text 122 150 Carrier;
#X floatatom 118 101 5 0 0 0 - - -, f 5;
#X text 68 191 Modulator;
#X obj 185 58 receive fr;
#X obj 326 142 receive am;
#X obj 167 232 -~;
#X floatatom 213 100 5 0 0 0 - - -, f 5;
#X obj 32 165 r CARR;
#X floatatom 43 45 5 0 0 0 - - -, f 5;
#X obj 36 80 send am;
#X connect 0 0 14 1;
#X connect 1 0 0 1;
#X connect 2 0 0 0;
#X connect 3 0 4 0;
#X connect 4 0 5 0;
#X connect 4 0 5 1;
#X connect 10 0 14 0;
#X connect 12 0 15 0;
#X connect 13 0 10 0;
#X connect 14 0 3 0;
#X connect 15 0 2 0;
#X connect 17 0 18 0;
